<mxfile host="" modified="2021-01-18T10:06:46.765Z" agent="5.0 (Macintosh; Intel Mac OS X 10_16_0) AppleWebKit/537.36 (KHTML, like Gecko) Chrome/81.0.4044.113 Safari/537.36" etag="aINwlVZLLQIz_JPz18nh" version="13.7.9" type="embed" pages="2"><diagram id="rlIW9Z-ZCgGAsV9PnPNQ" name="Page-1"><mxGraphModel dx="806" dy="1642" grid="1" gridSize="10" guides="1" tooltips="1" connect="1" arrows="1" fold="1" page="1" pageScale="1" pageWidth="850" pageHeight="1100" math="0" shadow="0"><root><mxCell id="0"/><mxCell id="1" parent="0"/><mxCell id="YZ48Ijt9OCrha46DnuaJ-13" style="edgeStyle=orthogonalEdgeStyle;rounded=0;orthogonalLoop=1;jettySize=auto;html=1;exitX=0.5;exitY=0.5;exitDx=0;exitDy=0;exitPerimeter=0;entryX=0;entryY=0.5;entryDx=0;entryDy=0;" parent="1" source="YZ48Ijt9OCrha46DnuaJ-1" target="gLj6kiCUZ7eMAXrR_UM_-36" edge="1"><mxGeometry relative="1" as="geometry"><mxPoint x="434.5" y="-105" as="targetPoint"/><Array as="points"><mxPoint x="444.5" y="-25"/></Array></mxGeometry></mxCell><mxCell id="gLj6kiCUZ7eMAXrR_UM_-108" style="edgeStyle=orthogonalEdgeStyle;rounded=0;orthogonalLoop=1;jettySize=auto;html=1;entryX=0;entryY=0.5;entryDx=0;entryDy=0;startArrow=none;startFill=0;startSize=6;endArrow=blockThin;endFill=1;endSize=6;" parent="1" source="YZ48Ijt9OCrha46DnuaJ-1" target="gLj6kiCUZ7eMAXrR_UM_-107" edge="1"><mxGeometry relative="1" as="geometry"><Array as="points"><mxPoint x="360" y="-25"/><mxPoint x="360" y="-130"/><mxPoint x="874" y="-130"/><mxPoint x="874" y="-240"/></Array></mxGeometry></mxCell><mxCell id="lVFyNzvFV3RCxDPBxhwB-56" style="edgeStyle=orthogonalEdgeStyle;rounded=0;orthogonalLoop=1;jettySize=auto;html=1;exitX=0.5;exitY=0.5;exitDx=0;exitDy=0;exitPerimeter=0;entryX=0.5;entryY=0;entryDx=0;entryDy=0;" parent="1" source="YZ48Ijt9OCrha46DnuaJ-1" target="gLj6kiCUZ7eMAXrR_UM_-7" edge="1"><mxGeometry relative="1" as="geometry"><mxPoint x="511.5" y="167" as="targetPoint"/><Array as="points"><mxPoint x="360" y="-25"/><mxPoint x="360" y="140"/><mxPoint x="499" y="140"/></Array></mxGeometry></mxCell><mxCell id="lVFyNzvFV3RCxDPBxhwB-57" style="edgeStyle=orthogonalEdgeStyle;rounded=0;orthogonalLoop=1;jettySize=auto;html=1;entryX=0;entryY=0.5;entryDx=0;entryDy=0;" parent="1" source="YZ48Ijt9OCrha46DnuaJ-1" target="gLj6kiCUZ7eMAXrR_UM_-11" edge="1"><mxGeometry relative="1" as="geometry"><Array as="points"><mxPoint x="360" y="-25"/><mxPoint x="360" y="65"/></Array></mxGeometry></mxCell><mxCell id="RF34l_aaWgoZJcNUR6ka-8" style="edgeStyle=orthogonalEdgeStyle;rounded=0;orthogonalLoop=1;jettySize=auto;html=1;exitX=0.5;exitY=0.5;exitDx=0;exitDy=0;exitPerimeter=0;entryX=0;entryY=0.5;entryDx=0;entryDy=0;" parent="1" source="YZ48Ijt9OCrha46DnuaJ-1" target="RF34l_aaWgoZJcNUR6ka-7" edge="1"><mxGeometry relative="1" as="geometry"><Array as="points"><mxPoint x="360" y="-25"/><mxPoint x="360" y="-95"/></Array></mxGeometry></mxCell><mxCell id="YZ48Ijt9OCrha46DnuaJ-1" value="Utente" style="shape=umlActor;verticalLabelPosition=bottom;verticalAlign=top;html=1;outlineConnect=0;" parent="1" vertex="1"><mxGeometry x="220" y="-55" width="30" height="60" as="geometry"/></mxCell><mxCell id="PQM-Ch74UPkepPEKcutR-7" style="edgeStyle=orthogonalEdgeStyle;rounded=0;orthogonalLoop=1;jettySize=auto;html=1;exitX=0.5;exitY=0;exitDx=0;exitDy=0;exitPerimeter=0;entryX=0;entryY=0.5;entryDx=0;entryDy=0;" parent="1" source="YZ48Ijt9OCrha46DnuaJ-2" target="gLj6kiCUZ7eMAXrR_UM_-38" edge="1"><mxGeometry relative="1" as="geometry"/></mxCell><mxCell id="YZ48Ijt9OCrha46DnuaJ-2" value="Recepcionista" style="shape=umlActor;verticalLabelPosition=bottom;verticalAlign=top;html=1;outlineConnect=0;" parent="1" vertex="1"><mxGeometry x="220" y="-375" width="30" height="60" as="geometry"/></mxCell><mxCell id="gLj6kiCUZ7eMAXrR_UM_-43" style="edgeStyle=orthogonalEdgeStyle;rounded=0;orthogonalLoop=1;jettySize=auto;html=1;entryX=0;entryY=0.5;entryDx=0;entryDy=0;exitX=1;exitY=1;exitDx=0;exitDy=0;exitPerimeter=0;" parent="1" source="YZ48Ijt9OCrha46DnuaJ-3" target="YZ48Ijt9OCrha46DnuaJ-24" edge="1"><mxGeometry relative="1" as="geometry"><Array as="points"><mxPoint x="250" y="340"/><mxPoint x="350" y="340"/><mxPoint x="350" y="420"/><mxPoint x="460" y="420"/></Array></mxGeometry></mxCell><mxCell id="gLj6kiCUZ7eMAXrR_UM_-44" style="edgeStyle=orthogonalEdgeStyle;rounded=0;orthogonalLoop=1;jettySize=auto;html=1;entryX=0;entryY=0.5;entryDx=0;entryDy=0;" parent="1" target="lVFyNzvFV3RCxDPBxhwB-42" edge="1"><mxGeometry relative="1" as="geometry"><Array as="points"><mxPoint x="350" y="300"/><mxPoint x="350" y="290"/></Array><mxPoint x="390" y="605" as="targetPoint"/><mxPoint x="250" y="300" as="sourcePoint"/></mxGeometry></mxCell><mxCell id="gLj6kiCUZ7eMAXrR_UM_-46" style="edgeStyle=orthogonalEdgeStyle;rounded=0;orthogonalLoop=1;jettySize=auto;html=1;entryX=0;entryY=0.5;entryDx=0;entryDy=0;exitX=1;exitY=0.3333333333333333;exitDx=0;exitDy=0;exitPerimeter=0;" parent="1" source="YZ48Ijt9OCrha46DnuaJ-3" target="gLj6kiCUZ7eMAXrR_UM_-5" edge="1"><mxGeometry relative="1" as="geometry"><Array as="points"><mxPoint x="350" y="300"/><mxPoint x="350" y="535"/></Array></mxGeometry></mxCell><mxCell id="PQM-Ch74UPkepPEKcutR-12" style="edgeStyle=orthogonalEdgeStyle;rounded=0;orthogonalLoop=1;jettySize=auto;html=1;exitX=0.5;exitY=0;exitDx=0;exitDy=0;exitPerimeter=0;entryX=0;entryY=0.5;entryDx=0;entryDy=0;" parent="1" source="YZ48Ijt9OCrha46DnuaJ-3" target="gLj6kiCUZ7eMAXrR_UM_-7" edge="1"><mxGeometry relative="1" as="geometry"/></mxCell><mxCell id="YZ48Ijt9OCrha46DnuaJ-3" value="Médico" style="shape=umlActor;verticalLabelPosition=bottom;verticalAlign=top;html=1;outlineConnect=0;" parent="1" vertex="1"><mxGeometry x="220" y="280" width="30" height="60" as="geometry"/></mxCell><mxCell id="YZ48Ijt9OCrha46DnuaJ-8" value="Responsável pela&lt;br&gt;Unidade de Consultas" style="shape=umlActor;verticalLabelPosition=bottom;verticalAlign=top;html=1;outlineConnect=0;" parent="1" vertex="1"><mxGeometry x="1120" y="1085" width="30" height="60" as="geometry"/></mxCell><mxCell id="gLj6kiCUZ7eMAXrR_UM_-84" style="edgeStyle=orthogonalEdgeStyle;rounded=0;orthogonalLoop=1;jettySize=auto;html=1;entryX=0;entryY=0.5;entryDx=0;entryDy=0;startArrow=none;startFill=0;startSize=6;endArrow=blockThin;endFill=1;endSize=6;" parent="1" source="YZ48Ijt9OCrha46DnuaJ-9" target="gLj6kiCUZ7eMAXrR_UM_-83" edge="1"><mxGeometry relative="1" as="geometry"><Array as="points"><mxPoint x="360" y="950"/><mxPoint x="360" y="903"/></Array></mxGeometry></mxCell><mxCell id="YZ48Ijt9OCrha46DnuaJ-9" value="Calendário de vagas" style="shape=umlActor;verticalLabelPosition=bottom;verticalAlign=top;html=1;outlineConnect=0;" parent="1" vertex="1"><mxGeometry x="220" y="930" width="30" height="60" as="geometry"/></mxCell><mxCell id="YZ48Ijt9OCrha46DnuaJ-24" value="Chamar Próximo Utente" style="ellipse;whiteSpace=wrap;html=1;" parent="1" vertex="1"><mxGeometry x="460" y="400" width="110" height="50" as="geometry"/></mxCell><mxCell id="gLj6kiCUZ7eMAXrR_UM_-2" value="Imprimir senha" style="ellipse;whiteSpace=wrap;html=1;" parent="1" vertex="1"><mxGeometry x="550" y="-480" width="110" height="50" as="geometry"/></mxCell><mxCell id="gLj6kiCUZ7eMAXrR_UM_-3" value="«include»" style="endArrow=open;endSize=6;endFill=0;html=1;startArrow=none;startFill=0;verticalAlign=middle;dashed=1;entryX=0;entryY=0.5;entryDx=0;entryDy=0;exitX=1;exitY=0.5;exitDx=0;exitDy=0;" parent="1" source="gLj6kiCUZ7eMAXrR_UM_-38" target="gLj6kiCUZ7eMAXrR_UM_-2" edge="1"><mxGeometry width="160" relative="1" as="geometry"><mxPoint x="515.5" y="-450" as="sourcePoint"/><mxPoint x="795.5" y="-281" as="targetPoint"/></mxGeometry></mxCell><mxCell id="gLj6kiCUZ7eMAXrR_UM_-4" value="Aceder informação de consultas" style="ellipse;whiteSpace=wrap;html=1;" parent="1" vertex="1"><mxGeometry x="400" y="1490" width="110" height="50" as="geometry"/></mxCell><mxCell id="gLj6kiCUZ7eMAXrR_UM_-5" value="Terminar consulta" style="ellipse;whiteSpace=wrap;html=1;" parent="1" vertex="1"><mxGeometry x="460" y="510" width="110" height="50" as="geometry"/></mxCell><mxCell id="gLj6kiCUZ7eMAXrR_UM_-7" value="Desmarcar consulta" style="ellipse;whiteSpace=wrap;html=1;" parent="1" vertex="1"><mxGeometry x="444.5" y="160" width="110" height="50" as="geometry"/></mxCell><mxCell id="gLj6kiCUZ7eMAXrR_UM_-11" value="Reagendar consulta" style="ellipse;whiteSpace=wrap;html=1;" parent="1" vertex="1"><mxGeometry x="444.5" y="40" width="110" height="50" as="geometry"/></mxCell><mxCell id="gLj6kiCUZ7eMAXrR_UM_-36" value="Marcar Consulta" style="ellipse;whiteSpace=wrap;html=1;" parent="1" vertex="1"><mxGeometry x="444.5" y="-45" width="110" height="50" as="geometry"/></mxCell><mxCell id="gLj6kiCUZ7eMAXrR_UM_-38" value="Registar entrada de Utente" style="ellipse;whiteSpace=wrap;html=1;" parent="1" vertex="1"><mxGeometry x="360" y="-506" width="110" height="50" as="geometry"/></mxCell><mxCell id="gLj6kiCUZ7eMAXrR_UM_-42" style="edgeStyle=orthogonalEdgeStyle;rounded=0;orthogonalLoop=1;jettySize=auto;html=1;exitX=1;exitY=0.3333333333333333;exitDx=0;exitDy=0;exitPerimeter=0;" parent="1" source="gLj6kiCUZ7eMAXrR_UM_-41" edge="1"><mxGeometry relative="1" as="geometry"><mxPoint x="415" y="-510" as="targetPoint"/></mxGeometry></mxCell><mxCell id="gLj6kiCUZ7eMAXrR_UM_-41" value="Leitor de Cartões" style="shape=umlActor;verticalLabelPosition=bottom;verticalAlign=top;html=1;outlineConnect=0;" parent="1" vertex="1"><mxGeometry x="220" y="-610" width="30" height="60" as="geometry"/></mxCell><mxCell id="gLj6kiCUZ7eMAXrR_UM_-47" value="«include»" style="endArrow=open;endSize=6;endFill=0;html=1;startArrow=none;startFill=0;verticalAlign=middle;dashed=1;entryX=0;entryY=0.5;entryDx=0;entryDy=0;exitX=1;exitY=0.5;exitDx=0;exitDy=0;" parent="1" source="YZ48Ijt9OCrha46DnuaJ-24" target="gLj6kiCUZ7eMAXrR_UM_-48" edge="1"><mxGeometry width="160" relative="1" as="geometry"><mxPoint x="579" y="225" as="sourcePoint"/><mxPoint x="680" y="220" as="targetPoint"/></mxGeometry></mxCell><mxCell id="gLj6kiCUZ7eMAXrR_UM_-48" value="Actualizar ecrãs" style="ellipse;whiteSpace=wrap;html=1;" parent="1" vertex="1"><mxGeometry x="710" y="420" width="110" height="50" as="geometry"/></mxCell><mxCell id="gLj6kiCUZ7eMAXrR_UM_-49" value="Registar hora de início" style="ellipse;whiteSpace=wrap;html=1;" parent="1" vertex="1"><mxGeometry x="710" y="350" width="110" height="50" as="geometry"/></mxCell><mxCell id="gLj6kiCUZ7eMAXrR_UM_-50" value="«include»" style="endArrow=open;endSize=6;endFill=0;html=1;startArrow=none;startFill=0;verticalAlign=middle;dashed=1;exitX=1;exitY=0;exitDx=0;exitDy=0;entryX=0;entryY=0.5;entryDx=0;entryDy=0;" parent="1" source="YZ48Ijt9OCrha46DnuaJ-24" target="gLj6kiCUZ7eMAXrR_UM_-49" edge="1"><mxGeometry width="160" relative="1" as="geometry"><mxPoint x="710" y="580" as="sourcePoint"/><mxPoint x="830" y="580" as="targetPoint"/></mxGeometry></mxCell><mxCell id="gLj6kiCUZ7eMAXrR_UM_-52" value="Registar hora de fim" style="ellipse;whiteSpace=wrap;html=1;" parent="1" vertex="1"><mxGeometry x="710" y="510" width="110" height="50" as="geometry"/></mxCell><mxCell id="gLj6kiCUZ7eMAXrR_UM_-57" value="«extend»" style="endArrow=none;endSize=6;endFill=0;html=1;startArrow=open;startFill=0;verticalAlign=middle;dashed=1;exitX=1;exitY=1;exitDx=0;exitDy=0;entryX=0;entryY=0;entryDx=0;entryDy=0;" parent="1" source="YZ48Ijt9OCrha46DnuaJ-24" target="gLj6kiCUZ7eMAXrR_UM_-52" edge="1"><mxGeometry width="160" relative="1" as="geometry"><mxPoint x="710" y="760" as="sourcePoint"/><mxPoint x="830" y="760" as="targetPoint"/><Array as="points"/></mxGeometry></mxCell><mxCell id="gLj6kiCUZ7eMAXrR_UM_-66" value="«include»" style="endArrow=open;endSize=6;endFill=0;html=1;startArrow=none;startFill=0;verticalAlign=middle;dashed=1;exitX=1;exitY=0.5;exitDx=0;exitDy=0;entryX=0;entryY=0.5;entryDx=0;entryDy=0;" parent="1" source="gLj6kiCUZ7eMAXrR_UM_-52" target="VAAhUo6mJBoyretd-Kmi-9" edge="1"><mxGeometry width="160" relative="1" as="geometry"><mxPoint x="539.497474683058" y="182.6776695296635" as="sourcePoint"/><mxPoint x="1190" y="80" as="targetPoint"/><Array as="points"/></mxGeometry></mxCell><mxCell id="gLj6kiCUZ7eMAXrR_UM_-80" style="edgeStyle=orthogonalEdgeStyle;rounded=0;orthogonalLoop=1;jettySize=auto;html=1;exitX=1;exitY=1;exitDx=0;exitDy=0;exitPerimeter=0;entryX=0;entryY=0.3333333333333333;entryDx=0;entryDy=0;entryPerimeter=0;endArrow=none;endFill=0;startArrow=block;startFill=0;endSize=6;startSize=16;" parent="1" source="gLj6kiCUZ7eMAXrR_UM_-77" target="YZ48Ijt9OCrha46DnuaJ-2" edge="1"><mxGeometry relative="1" as="geometry"><Array as="points"><mxPoint x="110" y="-384"/></Array></mxGeometry></mxCell><mxCell id="gLj6kiCUZ7eMAXrR_UM_-77" value="Funcionário" style="shape=umlActor;verticalLabelPosition=bottom;verticalAlign=top;html=1;outlineConnect=0;fillColor=none;" parent="1" vertex="1"><mxGeometry x="80" y="-520" width="30" height="60" as="geometry"/></mxCell><mxCell id="gLj6kiCUZ7eMAXrR_UM_-82" style="edgeStyle=orthogonalEdgeStyle;rounded=0;orthogonalLoop=1;jettySize=auto;html=1;endArrow=none;endFill=0;startArrow=block;startFill=0;endSize=6;startSize=16;entryX=0;entryY=0.3333333333333333;entryDx=0;entryDy=0;entryPerimeter=0;" parent="1" target="YZ48Ijt9OCrha46DnuaJ-3" edge="1"><mxGeometry relative="1" as="geometry"><mxPoint x="110" y="-460" as="sourcePoint"/><mxPoint x="180" y="-20" as="targetPoint"/><Array as="points"><mxPoint x="110" y="200"/><mxPoint x="160" y="200"/><mxPoint x="160" y="300"/></Array></mxGeometry></mxCell><mxCell id="gLj6kiCUZ7eMAXrR_UM_-83" value="Preencher calendário de vagas" style="ellipse;whiteSpace=wrap;html=1;" parent="1" vertex="1"><mxGeometry x="410" y="870" width="130" height="65" as="geometry"/></mxCell><mxCell id="gLj6kiCUZ7eMAXrR_UM_-85" value="Especialidade" style="shape=umlActor;verticalLabelPosition=bottom;verticalAlign=top;html=1;outlineConnect=0;" parent="1" vertex="1"><mxGeometry x="220" y="490" width="30" height="60" as="geometry"/></mxCell><mxCell id="gLj6kiCUZ7eMAXrR_UM_-86" style="edgeStyle=orthogonalEdgeStyle;rounded=0;orthogonalLoop=1;jettySize=auto;html=1;entryX=0;entryY=0.5;entryDx=0;entryDy=0;startArrow=none;startFill=0;startSize=6;endArrow=blockThin;endFill=1;endSize=6;" parent="1" target="gLj6kiCUZ7eMAXrR_UM_-87" edge="1"><mxGeometry relative="1" as="geometry"><mxPoint x="360" y="950" as="sourcePoint"/><mxPoint x="470" y="980" as="targetPoint"/><Array as="points"><mxPoint x="380" y="980"/><mxPoint x="380" y="980"/></Array></mxGeometry></mxCell><mxCell id="gLj6kiCUZ7eMAXrR_UM_-88" style="edgeStyle=orthogonalEdgeStyle;rounded=0;orthogonalLoop=1;jettySize=auto;html=1;startArrow=none;startFill=0;startSize=6;endArrow=blockThin;endFill=1;endSize=6;entryX=0.5;entryY=0.5;entryDx=0;entryDy=0;entryPerimeter=0;exitX=1;exitY=0.5;exitDx=0;exitDy=0;" parent="1" source="gLj6kiCUZ7eMAXrR_UM_-87" target="a5AomoWqGmslxi2ikkxO-5" edge="1"><mxGeometry relative="1" as="geometry"><Array as="points"><mxPoint x="510" y="980"/><mxPoint x="610" y="980"/><mxPoint x="610" y="840"/></Array><mxPoint x="540" y="940" as="sourcePoint"/><mxPoint x="780" y="950" as="targetPoint"/></mxGeometry></mxCell><mxCell id="gLj6kiCUZ7eMAXrR_UM_-90" style="edgeStyle=orthogonalEdgeStyle;rounded=0;orthogonalLoop=1;jettySize=auto;html=1;entryX=0.5;entryY=0.5;entryDx=0;entryDy=0;entryPerimeter=0;startArrow=none;startFill=0;startSize=6;endArrow=blockThin;endFill=1;endSize=6;" parent="1" source="gLj6kiCUZ7eMAXrR_UM_-87" target="a5AomoWqGmslxi2ikkxO-4" edge="1"><mxGeometry relative="1" as="geometry"><Array as="points"><mxPoint x="760" y="980"/><mxPoint x="760" y="980"/></Array></mxGeometry></mxCell><mxCell id="gLj6kiCUZ7eMAXrR_UM_-92" style="edgeStyle=orthogonalEdgeStyle;rounded=0;orthogonalLoop=1;jettySize=auto;html=1;startArrow=none;startFill=0;startSize=6;endArrow=blockThin;endFill=1;endSize=6;entryX=0.5;entryY=0.5;entryDx=0;entryDy=0;entryPerimeter=0;exitX=1;exitY=0.5;exitDx=0;exitDy=0;" parent="1" source="gLj6kiCUZ7eMAXrR_UM_-87" target="YZ48Ijt9OCrha46DnuaJ-8" edge="1"><mxGeometry relative="1" as="geometry"><mxPoint x="580" y="1040" as="sourcePoint"/><Array as="points"><mxPoint x="510" y="980"/><mxPoint x="610" y="980"/><mxPoint x="610" y="1115"/></Array></mxGeometry></mxCell><mxCell id="gLj6kiCUZ7eMAXrR_UM_-87" value="Enviar notificação de horário sem vagas" style="ellipse;whiteSpace=wrap;html=1;" parent="1" vertex="1"><mxGeometry x="410" y="950" width="130" height="60" as="geometry"/></mxCell><mxCell id="gLj6kiCUZ7eMAXrR_UM_-91" style="edgeStyle=orthogonalEdgeStyle;rounded=0;orthogonalLoop=1;jettySize=auto;html=1;endArrow=none;endFill=0;startArrow=block;startFill=0;endSize=6;startSize=16;exitX=0;exitY=1;exitDx=0;exitDy=0;exitPerimeter=0;" parent="1" source="YZ48Ijt9OCrha46DnuaJ-3" edge="1"><mxGeometry relative="1" as="geometry"><mxPoint x="220" y="390" as="sourcePoint"/><mxPoint x="235" y="490" as="targetPoint"/><Array as="points"><mxPoint x="180" y="340"/><mxPoint x="180" y="490"/></Array></mxGeometry></mxCell><mxCell id="gLj6kiCUZ7eMAXrR_UM_-93" value="Abrir horários extra" style="ellipse;whiteSpace=wrap;html=1;" parent="1" vertex="1"><mxGeometry x="425" y="1105" width="110" height="50" as="geometry"/></mxCell><mxCell id="gLj6kiCUZ7eMAXrR_UM_-97" value="«extend»" style="endArrow=none;endSize=6;endFill=0;html=1;startArrow=open;startFill=0;verticalAlign=middle;dashed=1;exitX=1;exitY=1;exitDx=0;exitDy=0;entryX=0.5;entryY=0;entryDx=0;entryDy=0;" parent="1" source="gLj6kiCUZ7eMAXrR_UM_-36" target="gLj6kiCUZ7eMAXrR_UM_-98" edge="1"><mxGeometry width="160" relative="1" as="geometry"><mxPoint x="604.4974746830585" y="-58.83766952966357" as="sourcePoint"/><mxPoint x="725.5" y="-75" as="targetPoint"/></mxGeometry></mxCell><mxCell id="gLj6kiCUZ7eMAXrR_UM_-98" value="Abrir pedido em lista de espera" style="ellipse;whiteSpace=wrap;html=1;" parent="1" vertex="1"><mxGeometry x="700" y="40" width="110" height="50" as="geometry"/></mxCell><mxCell id="gLj6kiCUZ7eMAXrR_UM_-105" style="edgeStyle=orthogonalEdgeStyle;rounded=0;orthogonalLoop=1;jettySize=auto;html=1;startArrow=none;startFill=0;startSize=6;endArrow=blockThin;endFill=1;endSize=6;entryX=0;entryY=0.5;entryDx=0;entryDy=0;" parent="1" source="gLj6kiCUZ7eMAXrR_UM_-99" target="gLj6kiCUZ7eMAXrR_UM_-100" edge="1"><mxGeometry relative="1" as="geometry"><mxPoint x="400" y="-240" as="targetPoint"/></mxGeometry></mxCell><mxCell id="gLj6kiCUZ7eMAXrR_UM_-99" value="Sistema vagas" style="shape=umlActor;verticalLabelPosition=bottom;verticalAlign=top;html=1;outlineConnect=0;" parent="1" vertex="1"><mxGeometry x="220" y="-270" width="30" height="60" as="geometry"/></mxCell><mxCell id="gLj6kiCUZ7eMAXrR_UM_-100" value="Atribuir vaga" style="ellipse;whiteSpace=wrap;html=1;" parent="1" vertex="1"><mxGeometry x="420" y="-265" width="110" height="50" as="geometry"/></mxCell><mxCell id="gLj6kiCUZ7eMAXrR_UM_-102" value="«include»" style="endArrow=open;endSize=6;endFill=0;html=1;startArrow=none;startFill=0;verticalAlign=middle;dashed=1;exitX=1;exitY=0.5;exitDx=0;exitDy=0;" parent="1" source="gLj6kiCUZ7eMAXrR_UM_-100" target="gLj6kiCUZ7eMAXrR_UM_-103" edge="1"><mxGeometry width="160" relative="1" as="geometry"><mxPoint x="585" y="-290.4200000000001" as="sourcePoint"/><mxPoint x="705" y="-290.4200000000001" as="targetPoint"/></mxGeometry></mxCell><mxCell id="gLj6kiCUZ7eMAXrR_UM_-104" style="edgeStyle=orthogonalEdgeStyle;rounded=0;orthogonalLoop=1;jettySize=auto;html=1;entryX=0.5;entryY=0;entryDx=0;entryDy=0;entryPerimeter=0;startArrow=none;startFill=0;startSize=6;endArrow=blockThin;endFill=1;endSize=6;exitX=0.5;exitY=1;exitDx=0;exitDy=0;" parent="1" source="gLj6kiCUZ7eMAXrR_UM_-103" target="YZ48Ijt9OCrha46DnuaJ-1" edge="1"><mxGeometry relative="1" as="geometry"><Array as="points"><mxPoint x="715" y="-150"/><mxPoint x="235" y="-150"/></Array><mxPoint x="800" y="-230" as="sourcePoint"/></mxGeometry></mxCell><mxCell id="gLj6kiCUZ7eMAXrR_UM_-103" value="Enviar mensagem de confirmação" style="ellipse;whiteSpace=wrap;html=1;" parent="1" vertex="1"><mxGeometry x="660" y="-265.00000000000045" width="110" height="50" as="geometry"/></mxCell><mxCell id="gLj6kiCUZ7eMAXrR_UM_-107" value="Confirmar vaga" style="ellipse;whiteSpace=wrap;html=1;" parent="1" vertex="1"><mxGeometry x="914.5" y="-265.00000000000045" width="110" height="50" as="geometry"/></mxCell><mxCell id="a5AomoWqGmslxi2ikkxO-1" value="Registar hora de chegada" style="ellipse;whiteSpace=wrap;html=1;" parent="1" vertex="1"><mxGeometry x="550" y="-570" width="110" height="50" as="geometry"/></mxCell><mxCell id="a5AomoWqGmslxi2ikkxO-2" value="«include»" style="endArrow=open;endSize=6;endFill=0;html=1;startArrow=none;startFill=0;verticalAlign=middle;dashed=1;entryX=0;entryY=0.5;entryDx=0;entryDy=0;exitX=1;exitY=0;exitDx=0;exitDy=0;" parent="1" source="gLj6kiCUZ7eMAXrR_UM_-38" target="a5AomoWqGmslxi2ikkxO-1" edge="1"><mxGeometry width="160" relative="1" as="geometry"><mxPoint x="475.5" y="-600" as="sourcePoint"/><mxPoint x="575.5" y="-600" as="targetPoint"/></mxGeometry></mxCell><mxCell id="a5AomoWqGmslxi2ikkxO-4" value="Médico" style="shape=umlActor;verticalLabelPosition=bottom;verticalAlign=top;html=1;outlineConnect=0;" parent="1" vertex="1"><mxGeometry x="1120" y="950" width="30" height="60" as="geometry"/></mxCell><mxCell id="a5AomoWqGmslxi2ikkxO-5" value="Especialidade" style="shape=umlActor;verticalLabelPosition=bottom;verticalAlign=top;html=1;outlineConnect=0;" parent="1" vertex="1"><mxGeometry x="1120" y="810" width="30" height="60" as="geometry"/></mxCell><mxCell id="lVFyNzvFV3RCxDPBxhwB-1" value="Registar data/hora da consulta" style="ellipse;whiteSpace=wrap;html=1;" parent="1" vertex="1"><mxGeometry x="695" y="-80" width="140" height="50" as="geometry"/></mxCell><mxCell id="lVFyNzvFV3RCxDPBxhwB-2" value="«include»" style="endArrow=open;endSize=6;endFill=0;html=1;startArrow=none;startFill=0;verticalAlign=middle;dashed=1;exitX=1;exitY=0;exitDx=0;exitDy=0;entryX=0;entryY=0.5;entryDx=0;entryDy=0;" parent="1" source="gLj6kiCUZ7eMAXrR_UM_-36" target="lVFyNzvFV3RCxDPBxhwB-1" edge="1"><mxGeometry width="160" relative="1" as="geometry"><mxPoint x="604.5" y="40" as="sourcePoint"/><mxPoint x="724.5" y="40" as="targetPoint"/></mxGeometry></mxCell><mxCell id="lVFyNzvFV3RCxDPBxhwB-8" value="Registar Impossibilidade&lt;br&gt;do Médico" style="ellipse;whiteSpace=wrap;html=1;shadow=0;glass=0;sketch=0;fillColor=none;" parent="1" vertex="1"><mxGeometry x="704.5" y="160" width="100" height="60" as="geometry"/></mxCell><mxCell id="lVFyNzvFV3RCxDPBxhwB-13" value="&amp;lt;&amp;lt;include&amp;gt;&amp;gt;" style="edgeStyle=none;rounded=0;orthogonalLoop=1;jettySize=auto;html=1;entryX=0.5;entryY=1;entryDx=0;entryDy=0;endArrow=open;endFill=0;startArrow=none;startFill=0;sketch=0;dashed=1;exitX=0.5;exitY=0;exitDx=0;exitDy=0;" parent="1" source="lVFyNzvFV3RCxDPBxhwB-8" target="gLj6kiCUZ7eMAXrR_UM_-98" edge="1"><mxGeometry y="10" relative="1" as="geometry"><mxPoint x="820" y="120" as="sourcePoint"/><mxPoint x="674.5" y="-35" as="targetPoint"/><mxPoint as="offset"/></mxGeometry></mxCell><mxCell id="lVFyNzvFV3RCxDPBxhwB-20" value="Pesquizar&amp;nbsp;consultas realizadas" style="ellipse;whiteSpace=wrap;html=1;" parent="1" vertex="1"><mxGeometry x="595.5" y="1370" width="140" height="50" as="geometry"/></mxCell><mxCell id="lVFyNzvFV3RCxDPBxhwB-21" value="«extend»" style="endArrow=none;endSize=6;endFill=0;html=1;startArrow=open;startFill=0;verticalAlign=middle;dashed=1;exitX=1;exitY=0;exitDx=0;exitDy=0;entryX=0;entryY=0.5;entryDx=0;entryDy=0;" parent="1" source="gLj6kiCUZ7eMAXrR_UM_-4" target="lVFyNzvFV3RCxDPBxhwB-20" edge="1"><mxGeometry width="160" relative="1" as="geometry"><mxPoint x="520.5" y="1515" as="sourcePoint"/><mxPoint x="410.5" y="1570" as="targetPoint"/></mxGeometry></mxCell><mxCell id="lVFyNzvFV3RCxDPBxhwB-23" value="Pesquizar&amp;nbsp;consultas não realizadas" style="ellipse;whiteSpace=wrap;html=1;" parent="1" vertex="1"><mxGeometry x="600" y="1490" width="140" height="50" as="geometry"/></mxCell><mxCell id="lVFyNzvFV3RCxDPBxhwB-24" value="Pesquizar&amp;nbsp;por falta de comparência" style="ellipse;whiteSpace=wrap;html=1;" parent="1" vertex="1"><mxGeometry x="799.5" y="1440" width="140" height="50" as="geometry"/></mxCell><mxCell id="lVFyNzvFV3RCxDPBxhwB-25" value="Pesquizar&amp;nbsp;consultas desmarcadas" style="ellipse;whiteSpace=wrap;html=1;" parent="1" vertex="1"><mxGeometry x="820" y="1560" width="140" height="50" as="geometry"/></mxCell><mxCell id="lVFyNzvFV3RCxDPBxhwB-26" value="«extend»" style="endArrow=none;endSize=6;endFill=0;html=1;startArrow=open;startFill=0;verticalAlign=middle;dashed=1;exitX=1;exitY=0;exitDx=0;exitDy=0;entryX=0;entryY=0.5;entryDx=0;entryDy=0;" parent="1" source="lVFyNzvFV3RCxDPBxhwB-23" target="lVFyNzvFV3RCxDPBxhwB-24" edge="1"><mxGeometry width="160" relative="1" as="geometry"><mxPoint x="790" y="1590" as="sourcePoint"/><mxPoint x="910" y="1590" as="targetPoint"/></mxGeometry></mxCell><mxCell id="lVFyNzvFV3RCxDPBxhwB-27" value="«extend»" style="endArrow=none;endSize=6;endFill=0;html=1;startArrow=open;startFill=0;verticalAlign=middle;dashed=1;exitX=1;exitY=0.5;exitDx=0;exitDy=0;entryX=0;entryY=0.5;entryDx=0;entryDy=0;" parent="1" source="gLj6kiCUZ7eMAXrR_UM_-4" target="lVFyNzvFV3RCxDPBxhwB-23" edge="1"><mxGeometry width="160" relative="1" as="geometry"><mxPoint x="499.99747468305804" y="1532.677669529664" as="sourcePoint"/><mxPoint x="530.5" y="1480" as="targetPoint"/></mxGeometry></mxCell><mxCell id="lVFyNzvFV3RCxDPBxhwB-28" value="«extend»" style="endArrow=none;endSize=6;endFill=0;html=1;startArrow=open;startFill=0;verticalAlign=middle;dashed=1;exitX=1;exitY=1;exitDx=0;exitDy=0;entryX=-0.014;entryY=0.38;entryDx=0;entryDy=0;entryPerimeter=0;" parent="1" source="lVFyNzvFV3RCxDPBxhwB-23" target="lVFyNzvFV3RCxDPBxhwB-25" edge="1"><mxGeometry width="160" relative="1" as="geometry"><mxPoint x="400" y="1380" as="sourcePoint"/><mxPoint x="520" y="1380" as="targetPoint"/></mxGeometry></mxCell><mxCell id="lVFyNzvFV3RCxDPBxhwB-29" value="«extend»" style="endArrow=none;endSize=6;endFill=0;html=1;startArrow=open;startFill=0;verticalAlign=middle;dashed=1;exitX=1;exitY=0;exitDx=0;exitDy=0;entryX=0;entryY=0.5;entryDx=0;entryDy=0;" parent="1" source="lVFyNzvFV3RCxDPBxhwB-25" target="lVFyNzvFV3RCxDPBxhwB-30" edge="1"><mxGeometry width="160" relative="1" as="geometry"><mxPoint x="380" y="1550" as="sourcePoint"/><mxPoint x="450" y="1650" as="targetPoint"/></mxGeometry></mxCell><mxCell id="lVFyNzvFV3RCxDPBxhwB-30" value="Pesquizar&amp;nbsp;por impossibilidade do médico" style="ellipse;whiteSpace=wrap;html=1;" parent="1" vertex="1"><mxGeometry x="1040" y="1520" width="140" height="50" as="geometry"/></mxCell><mxCell id="lVFyNzvFV3RCxDPBxhwB-31" value="Pesquizar&amp;nbsp;por desistência do utente" style="ellipse;whiteSpace=wrap;html=1;" parent="1" vertex="1"><mxGeometry x="1040" y="1610" width="140" height="50" as="geometry"/></mxCell><mxCell id="lVFyNzvFV3RCxDPBxhwB-32" value="«extend»" style="endArrow=none;endSize=6;endFill=0;html=1;startArrow=open;startFill=0;verticalAlign=middle;dashed=1;entryX=0;entryY=0.5;entryDx=0;entryDy=0;" parent="1" target="lVFyNzvFV3RCxDPBxhwB-31" edge="1"><mxGeometry width="160" relative="1" as="geometry"><mxPoint x="946" y="1602" as="sourcePoint"/><mxPoint x="1050" y="1595" as="targetPoint"/></mxGeometry></mxCell><mxCell id="lVFyNzvFV3RCxDPBxhwB-33" value="«include»" style="endArrow=open;endSize=6;endFill=0;html=1;startArrow=none;startFill=0;verticalAlign=middle;dashed=1;entryX=0;entryY=0.5;entryDx=0;entryDy=0;exitX=1;exitY=0.5;exitDx=0;exitDy=0;" parent="1" source="gLj6kiCUZ7eMAXrR_UM_-5" target="gLj6kiCUZ7eMAXrR_UM_-52" edge="1"><mxGeometry width="160" relative="1" as="geometry"><mxPoint x="590.0008729652603" y="549.9976695296639" as="sourcePoint"/><mxPoint x="736.11" y="582.3199999999999" as="targetPoint"/><Array as="points"/></mxGeometry></mxCell><mxCell id="lVFyNzvFV3RCxDPBxhwB-35" value="&amp;lt;&amp;lt;extend&amp;gt;&amp;gt;" style="rounded=0;orthogonalLoop=1;jettySize=auto;html=1;entryX=0.5;entryY=1;entryDx=0;entryDy=0;dashed=1;endArrow=open;endFill=0;exitX=0.5;exitY=0;exitDx=0;exitDy=0;" parent="1" source="YZ48Ijt9OCrha46DnuaJ-24" target="lVFyNzvFV3RCxDPBxhwB-42" edge="1"><mxGeometry y="-10" relative="1" as="geometry"><mxPoint x="515" y="400" as="sourcePoint"/><mxPoint x="500" y="525" as="targetPoint"/><mxPoint as="offset"/></mxGeometry></mxCell><mxCell id="lVFyNzvFV3RCxDPBxhwB-42" value="Dar Tolerância de espera" style="ellipse;whiteSpace=wrap;html=1;shadow=0;glass=0;sketch=0;fillColor=none;" parent="1" vertex="1"><mxGeometry x="420" y="260" width="90" height="60" as="geometry"/></mxCell><mxCell id="lVFyNzvFV3RCxDPBxhwB-44" value="&amp;lt;&amp;lt;extend&amp;gt;&amp;gt;" style="rounded=0;orthogonalLoop=1;jettySize=auto;html=1;entryX=1;entryY=0.5;entryDx=0;entryDy=0;dashed=1;endArrow=open;endFill=0;exitX=0;exitY=0.5;exitDx=0;exitDy=0;" parent="1" source="lVFyNzvFV3RCxDPBxhwB-45" target="lVFyNzvFV3RCxDPBxhwB-42" edge="1"><mxGeometry y="-10" relative="1" as="geometry"><mxPoint x="635" y="275" as="sourcePoint"/><mxPoint x="675" y="165" as="targetPoint"/><mxPoint as="offset"/></mxGeometry></mxCell><mxCell id="lVFyNzvFV3RCxDPBxhwB-45" value="Registar falta de comparência" style="ellipse;whiteSpace=wrap;html=1;shadow=0;glass=0;sketch=0;fillColor=none;" parent="1" vertex="1"><mxGeometry x="585" y="260" width="80" height="60" as="geometry"/></mxCell><mxCell id="lVFyNzvFV3RCxDPBxhwB-47" value="Aceitar consulta&amp;nbsp; após atraso" style="ellipse;whiteSpace=wrap;html=1;shadow=0;glass=0;sketch=0;fillColor=none;" parent="1" vertex="1"><mxGeometry x="745" y="260" width="80" height="60" as="geometry"/></mxCell><mxCell id="lVFyNzvFV3RCxDPBxhwB-48" value="&amp;lt;&amp;lt;extend&amp;gt;&amp;gt;" style="edgeStyle=orthogonalEdgeStyle;rounded=0;orthogonalLoop=1;jettySize=auto;html=1;entryX=1;entryY=0.5;entryDx=0;entryDy=0;dashed=1;endArrow=open;endFill=0;exitX=0;exitY=0.5;exitDx=0;exitDy=0;" parent="1" source="lVFyNzvFV3RCxDPBxhwB-47" target="lVFyNzvFV3RCxDPBxhwB-45" edge="1"><mxGeometry y="-10" relative="1" as="geometry"><mxPoint x="765" y="20" as="sourcePoint"/><mxPoint x="665" y="20" as="targetPoint"/><mxPoint as="offset"/></mxGeometry></mxCell><mxCell id="lVFyNzvFV3RCxDPBxhwB-51" value="Remover Registo de Falta" style="ellipse;whiteSpace=wrap;html=1;shadow=0;glass=0;sketch=0;fillColor=none;" parent="1" vertex="1"><mxGeometry x="889.5" y="260" width="80" height="60" as="geometry"/></mxCell><mxCell id="lVFyNzvFV3RCxDPBxhwB-52" value="&amp;lt;&amp;lt;include&amp;gt;&amp;gt;" style="edgeStyle=none;rounded=0;orthogonalLoop=1;jettySize=auto;html=1;endArrow=open;endFill=0;startArrow=none;startFill=0;sketch=0;dashed=1;exitX=1;exitY=0.5;exitDx=0;exitDy=0;entryX=0;entryY=0.5;entryDx=0;entryDy=0;" parent="1" source="lVFyNzvFV3RCxDPBxhwB-47" target="lVFyNzvFV3RCxDPBxhwB-51" edge="1"><mxGeometry y="10" relative="1" as="geometry"><mxPoint x="945" y="258.02" as="sourcePoint"/><mxPoint x="975" y="60" as="targetPoint"/><mxPoint as="offset"/></mxGeometry></mxCell><mxCell id="lVFyNzvFV3RCxDPBxhwB-55" value="«extend»" style="endArrow=none;endSize=6;endFill=0;html=1;startArrow=open;startFill=0;verticalAlign=middle;dashed=1;exitX=1;exitY=0.5;exitDx=0;exitDy=0;entryX=0;entryY=0.5;entryDx=0;entryDy=0;" parent="1" source="gLj6kiCUZ7eMAXrR_UM_-7" target="lVFyNzvFV3RCxDPBxhwB-8" edge="1"><mxGeometry width="160" relative="1" as="geometry"><mxPoint x="538.3908729652603" y="172.67766952966394" as="sourcePoint"/><mxPoint x="684.5" y="290" as="targetPoint"/></mxGeometry></mxCell><mxCell id="lVFyNzvFV3RCxDPBxhwB-58" value="«extend»" style="endArrow=none;endSize=6;endFill=0;html=1;startArrow=open;startFill=0;verticalAlign=middle;dashed=1;exitX=1;exitY=0.5;exitDx=0;exitDy=0;entryX=0;entryY=0.5;entryDx=0;entryDy=0;" parent="1" source="gLj6kiCUZ7eMAXrR_UM_-11" target="gLj6kiCUZ7eMAXrR_UM_-98" edge="1"><mxGeometry width="160" relative="1" as="geometry"><mxPoint x="554.5" y="-65" as="sourcePoint"/><mxPoint x="665.5" y="-65" as="targetPoint"/></mxGeometry></mxCell><mxCell id="Hd_l0J1ptChqnH6OeWgn-1" value="Consultar estado de facturação" style="ellipse;whiteSpace=wrap;html=1;fillColor=#FF6666;" parent="1" vertex="1"><mxGeometry x="600" y="1590" width="110" height="50" as="geometry"/></mxCell><mxCell id="zkyNlk05eRyV9KaGEp7d-1" value="«extend»" style="endArrow=none;endSize=6;endFill=0;html=1;startArrow=open;startFill=0;verticalAlign=middle;dashed=1;exitX=1;exitY=1;exitDx=0;exitDy=0;entryX=0;entryY=0.5;entryDx=0;entryDy=0;" parent="1" source="gLj6kiCUZ7eMAXrR_UM_-4" target="Hd_l0J1ptChqnH6OeWgn-1" edge="1"><mxGeometry width="160" relative="1" as="geometry"><mxPoint x="590" y="1670" as="sourcePoint"/><mxPoint x="710" y="1670" as="targetPoint"/></mxGeometry></mxCell><mxCell id="VAAhUo6mJBoyretd-Kmi-1" style="edgeStyle=orthogonalEdgeStyle;rounded=0;orthogonalLoop=1;jettySize=auto;html=1;entryX=0;entryY=0.5;entryDx=0;entryDy=0;exitX=1;exitY=0.3333333333333333;exitDx=0;exitDy=0;exitPerimeter=0;" parent="1" source="YZ48Ijt9OCrha46DnuaJ-2" target="VAAhUo6mJBoyretd-Kmi-10" edge="1"><mxGeometry relative="1" as="geometry"><mxPoint x="330" y="-314" as="sourcePoint"/><Array as="points"><mxPoint x="350" y="-370"/></Array></mxGeometry></mxCell><mxCell id="VAAhUo6mJBoyretd-Kmi-3" style="edgeStyle=orthogonalEdgeStyle;rounded=0;orthogonalLoop=1;jettySize=auto;html=1;entryX=1;entryY=0.5;entryDx=0;entryDy=0;exitX=0;exitY=0.3333333333333333;exitDx=0;exitDy=0;exitPerimeter=0;" parent="1" source="VAAhUo6mJBoyretd-Kmi-4" target="VAAhUo6mJBoyretd-Kmi-5" edge="1"><mxGeometry relative="1" as="geometry"><Array as="points"/><mxPoint x="1030" y="706" as="sourcePoint"/></mxGeometry></mxCell><mxCell id="VAAhUo6mJBoyretd-Kmi-4" value="Sistema de Facturação" style="shape=umlActor;verticalLabelPosition=bottom;verticalAlign=top;html=1;outlineConnect=0;" parent="1" vertex="1"><mxGeometry x="1120" y="650" width="30" height="60" as="geometry"/></mxCell><mxCell id="VAAhUo6mJBoyretd-Kmi-5" value="Emitir número de factura" style="ellipse;whiteSpace=wrap;html=1;" parent="1" vertex="1"><mxGeometry x="939.5" y="645" width="110" height="50" as="geometry"/></mxCell><mxCell id="VAAhUo6mJBoyretd-Kmi-8" style="edgeStyle=orthogonalEdgeStyle;rounded=0;orthogonalLoop=1;jettySize=auto;html=1;exitX=1;exitY=0.5;exitDx=0;exitDy=0;" parent="1" source="VAAhUo6mJBoyretd-Kmi-9" target="VAAhUo6mJBoyretd-Kmi-4" edge="1"><mxGeometry relative="1" as="geometry"/></mxCell><mxCell id="VAAhUo6mJBoyretd-Kmi-9" value="Emitir pedido de facturação" style="ellipse;whiteSpace=wrap;html=1;fillColor=#FFFFFF;" parent="1" vertex="1"><mxGeometry x="939.5" y="510" width="110.5" height="50" as="geometry"/></mxCell><mxCell id="VAAhUo6mJBoyretd-Kmi-10" value="Registar pagamento" style="ellipse;whiteSpace=wrap;html=1;fillColor=#FFFFFF;" parent="1" vertex="1"><mxGeometry x="370" y="-394" width="140" height="50" as="geometry"/></mxCell><mxCell id="VAAhUo6mJBoyretd-Kmi-11" value="«include»" style="endArrow=open;endSize=6;endFill=0;html=1;startArrow=none;startFill=0;verticalAlign=middle;dashed=1;exitX=1;exitY=0.5;exitDx=0;exitDy=0;" parent="1" source="VAAhUo6mJBoyretd-Kmi-10" target="VAAhUo6mJBoyretd-Kmi-12" edge="1"><mxGeometry width="160" relative="1" as="geometry"><mxPoint x="489.5" y="-400" as="sourcePoint"/><mxPoint x="609.5" y="-400" as="targetPoint"/></mxGeometry></mxCell><mxCell id="VAAhUo6mJBoyretd-Kmi-12" value="Verificar existência de factura" style="ellipse;whiteSpace=wrap;html=1;" parent="1" vertex="1"><mxGeometry x="585" y="-394" width="140" height="50" as="geometry"/></mxCell><mxCell id="VAAhUo6mJBoyretd-Kmi-13" value="«extend»" style="endArrow=none;endSize=6;endFill=0;html=1;startArrow=open;startFill=0;verticalAlign=middle;dashed=1;exitX=1;exitY=0.5;exitDx=0;exitDy=0;" parent="1" source="VAAhUo6mJBoyretd-Kmi-12" target="VAAhUo6mJBoyretd-Kmi-14" edge="1"><mxGeometry width="160" relative="1" as="geometry"><mxPoint x="770" y="-369.5" as="sourcePoint"/><mxPoint x="890" y="-369.5" as="targetPoint"/></mxGeometry></mxCell><mxCell id="VAAhUo6mJBoyretd-Kmi-14" value="Actualizar estado de facturação" style="ellipse;whiteSpace=wrap;html=1;" parent="1" vertex="1"><mxGeometry x="810" y="-394" width="140" height="50" as="geometry"/></mxCell><mxCell id="RF34l_aaWgoZJcNUR6ka-2" value="Remover vaga do calendário" style="ellipse;whiteSpace=wrap;html=1;fillColor=#FFFFFF;" parent="1" vertex="1"><mxGeometry x="890" y="-80" width="140" height="50" as="geometry"/></mxCell><mxCell id="RF34l_aaWgoZJcNUR6ka-3" value="«include»" style="endArrow=open;endSize=6;endFill=0;html=1;startArrow=none;startFill=0;verticalAlign=middle;dashed=1;exitX=1;exitY=0.5;exitDx=0;exitDy=0;entryX=0;entryY=0.5;entryDx=0;entryDy=0;" parent="1" source="lVFyNzvFV3RCxDPBxhwB-1" target="RF34l_aaWgoZJcNUR6ka-2" edge="1"><mxGeometry width="160" relative="1" as="geometry"><mxPoint x="834.5" y="-80" as="sourcePoint"/><mxPoint x="874.5" y="-70" as="targetPoint"/></mxGeometry></mxCell><mxCell id="RF34l_aaWgoZJcNUR6ka-5" value="«include»" style="endArrow=open;endSize=6;endFill=0;html=1;startArrow=none;startFill=0;verticalAlign=middle;dashed=1;exitX=1;exitY=0.5;exitDx=0;exitDy=0;entryX=1;entryY=0.5;entryDx=0;entryDy=0;" parent="1" source="gLj6kiCUZ7eMAXrR_UM_-107" target="RF34l_aaWgoZJcNUR6ka-2" edge="1"><mxGeometry width="160" relative="1" as="geometry"><mxPoint x="824.5" y="-60" as="sourcePoint"/><mxPoint x="894.5" y="-60" as="targetPoint"/><Array as="points"><mxPoint x="1074.5" y="-240"/><mxPoint x="1075" y="-55"/></Array></mxGeometry></mxCell><mxCell id="RF34l_aaWgoZJcNUR6ka-7" value="Consultar Calendário de vagas" style="ellipse;whiteSpace=wrap;html=1;fillColor=#FFFFFF;" parent="1" vertex="1"><mxGeometry x="444.5" y="-120" width="150" height="50" as="geometry"/></mxCell><mxCell id="RF34l_aaWgoZJcNUR6ka-10" style="edgeStyle=orthogonalEdgeStyle;rounded=0;orthogonalLoop=1;jettySize=auto;html=1;entryX=0;entryY=0.5;entryDx=0;entryDy=0;exitX=1;exitY=0.3333333333333333;exitDx=0;exitDy=0;exitPerimeter=0;" parent="1" target="gLj6kiCUZ7eMAXrR_UM_-93" edge="1"><mxGeometry relative="1" as="geometry"><mxPoint x="250" y="1130" as="sourcePoint"/><mxPoint x="444.5000000000001" y="1125" as="targetPoint"/><Array as="points"><mxPoint x="400" y="1130"/><mxPoint x="400" y="1130"/></Array></mxGeometry></mxCell><mxCell id="RF34l_aaWgoZJcNUR6ka-9" value="Responsável pela&lt;br&gt;Unidade de Consultas" style="shape=umlActor;verticalLabelPosition=bottom;verticalAlign=top;html=1;outlineConnect=0;" parent="1" vertex="1"><mxGeometry x="220" y="1110" width="30" height="60" as="geometry"/></mxCell><mxCell id="RF34l_aaWgoZJcNUR6ka-14" style="edgeStyle=orthogonalEdgeStyle;rounded=0;orthogonalLoop=1;jettySize=auto;html=1;endArrow=none;endFill=0;startArrow=block;startFill=0;endSize=6;startSize=16;entryX=0;entryY=0.3333333333333333;entryDx=0;entryDy=0;entryPerimeter=0;" parent="1" target="RF34l_aaWgoZJcNUR6ka-9" edge="1"><mxGeometry relative="1" as="geometry"><mxPoint x="110" y="-460" as="sourcePoint"/><mxPoint x="200" y="1100" as="targetPoint"/><Array as="points"><mxPoint x="110" y="1130"/></Array></mxGeometry></mxCell></root></mxGraphModel></diagram><diagram id="E_rJfxFY_aJxUf2o0dma" name="Facturação"><mxGraphModel dx="1011" dy="608" grid="1" gridSize="10" guides="1" tooltips="1" connect="1" arrows="1" fold="1" page="1" pageScale="1" pageWidth="850" pageHeight="1100" math="0" shadow="0"><root><mxCell id="QlUvwBR-Zb-QXYvuMKLp-0"/><mxCell id="QlUvwBR-Zb-QXYvuMKLp-1" parent="QlUvwBR-Zb-QXYvuMKLp-0"/><mxCell id="kO1DGgj1EXR2TSMZ_o_Z-7" style="edgeStyle=orthogonalEdgeStyle;rounded=0;orthogonalLoop=1;jettySize=auto;html=1;entryX=0;entryY=0.5;entryDx=0;entryDy=0;" parent="QlUvwBR-Zb-QXYvuMKLp-1" source="QlUvwBR-Zb-QXYvuMKLp-6" target="kO1DGgj1EXR2TSMZ_o_Z-5" edge="1"><mxGeometry relative="1" as="geometry"/></mxCell><mxCell id="QlUvwBR-Zb-QXYvuMKLp-6" value="Recepcionista" style="shape=umlActor;verticalLabelPosition=bottom;verticalAlign=top;html=1;outlineConnect=0;" parent="QlUvwBR-Zb-QXYvuMKLp-1" vertex="1"><mxGeometry x="120" y="155" width="30" height="60" as="geometry"/></mxCell><mxCell id="kO1DGgj1EXR2TSMZ_o_Z-4" style="edgeStyle=orthogonalEdgeStyle;rounded=0;orthogonalLoop=1;jettySize=auto;html=1;entryX=1;entryY=0.5;entryDx=0;entryDy=0;" parent="QlUvwBR-Zb-QXYvuMKLp-1" source="QlUvwBR-Zb-QXYvuMKLp-7" target="QlUvwBR-Zb-QXYvuMKLp-14" edge="1"><mxGeometry relative="1" as="geometry"><Array as="points"><mxPoint x="845" y="275"/></Array></mxGeometry></mxCell><mxCell id="QlUvwBR-Zb-QXYvuMKLp-7" value="Sistema de Facturação" style="shape=umlActor;verticalLabelPosition=bottom;verticalAlign=top;html=1;outlineConnect=0;" parent="QlUvwBR-Zb-QXYvuMKLp-1" vertex="1"><mxGeometry x="830" y="315" width="30" height="60" as="geometry"/></mxCell><mxCell id="QlUvwBR-Zb-QXYvuMKLp-14" value="Emitir número de factura" style="ellipse;whiteSpace=wrap;html=1;" parent="QlUvwBR-Zb-QXYvuMKLp-1" vertex="1"><mxGeometry x="650" y="250" width="110" height="50" as="geometry"/></mxCell><mxCell id="kO1DGgj1EXR2TSMZ_o_Z-0" value="Registar hora de fim" style="ellipse;whiteSpace=wrap;html=1;" parent="QlUvwBR-Zb-QXYvuMKLp-1" vertex="1"><mxGeometry x="150" y="320" width="110" height="50" as="geometry"/></mxCell><mxCell id="kO1DGgj1EXR2TSMZ_o_Z-1" value="«include»" style="endArrow=open;endSize=6;endFill=0;html=1;startArrow=none;startFill=0;verticalAlign=middle;dashed=1;exitX=1;exitY=0.5;exitDx=0;exitDy=0;entryX=0;entryY=0.5;entryDx=0;entryDy=0;" parent="QlUvwBR-Zb-QXYvuMKLp-1" source="kO1DGgj1EXR2TSMZ_o_Z-0" target="kO1DGgj1EXR2TSMZ_o_Z-2" edge="1"><mxGeometry width="160" relative="1" as="geometry"><mxPoint x="349.49747468305804" y="239.99766952966354" as="sourcePoint"/><mxPoint x="510" y="520" as="targetPoint"/><Array as="points"/></mxGeometry></mxCell><mxCell id="kO1DGgj1EXR2TSMZ_o_Z-3" style="edgeStyle=orthogonalEdgeStyle;rounded=0;orthogonalLoop=1;jettySize=auto;html=1;exitX=1;exitY=0.5;exitDx=0;exitDy=0;" parent="QlUvwBR-Zb-QXYvuMKLp-1" source="kO1DGgj1EXR2TSMZ_o_Z-2" target="QlUvwBR-Zb-QXYvuMKLp-7" edge="1"><mxGeometry relative="1" as="geometry"/></mxCell><mxCell id="kO1DGgj1EXR2TSMZ_o_Z-2" value="Emitir pedido de facturação" style="ellipse;whiteSpace=wrap;html=1;fillColor=#FFFFFF;" parent="QlUvwBR-Zb-QXYvuMKLp-1" vertex="1"><mxGeometry x="420" y="320" width="140" height="50" as="geometry"/></mxCell><mxCell id="kO1DGgj1EXR2TSMZ_o_Z-5" value="Registar pagamento" style="ellipse;whiteSpace=wrap;html=1;fillColor=#FFFFFF;" parent="QlUvwBR-Zb-QXYvuMKLp-1" vertex="1"><mxGeometry x="230" y="160" width="140" height="50" as="geometry"/></mxCell><mxCell id="kO1DGgj1EXR2TSMZ_o_Z-8" value="«include»" style="endArrow=open;endSize=6;endFill=0;html=1;startArrow=none;startFill=0;verticalAlign=middle;dashed=1;exitX=1;exitY=0.5;exitDx=0;exitDy=0;" parent="QlUvwBR-Zb-QXYvuMKLp-1" source="kO1DGgj1EXR2TSMZ_o_Z-5" target="kO1DGgj1EXR2TSMZ_o_Z-9" edge="1"><mxGeometry width="160" relative="1" as="geometry"><mxPoint x="390" y="184.5" as="sourcePoint"/><mxPoint x="510" y="184.5" as="targetPoint"/></mxGeometry></mxCell><mxCell id="kO1DGgj1EXR2TSMZ_o_Z-9" value="Verificar existência de factura" style="ellipse;whiteSpace=wrap;html=1;" parent="QlUvwBR-Zb-QXYvuMKLp-1" vertex="1"><mxGeometry x="440" y="159.5" width="140" height="50" as="geometry"/></mxCell><mxCell id="kO1DGgj1EXR2TSMZ_o_Z-10" value="«extend»" style="endArrow=none;endSize=6;endFill=0;html=1;startArrow=open;startFill=0;verticalAlign=middle;dashed=1;exitX=1;exitY=0.5;exitDx=0;exitDy=0;" parent="QlUvwBR-Zb-QXYvuMKLp-1" source="kO1DGgj1EXR2TSMZ_o_Z-9" target="kO1DGgj1EXR2TSMZ_o_Z-11" edge="1"><mxGeometry width="160" relative="1" as="geometry"><mxPoint x="610" y="184" as="sourcePoint"/><mxPoint x="730" y="184" as="targetPoint"/></mxGeometry></mxCell><mxCell id="kO1DGgj1EXR2TSMZ_o_Z-11" value="Actualizar estado de facturação" style="ellipse;whiteSpace=wrap;html=1;" parent="QlUvwBR-Zb-QXYvuMKLp-1" vertex="1"><mxGeometry x="660" y="159" width="140" height="50" as="geometry"/></mxCell></root></mxGraphModel></diagram></mxfile>